<svg width="814" height="315" viewBox="0 0 814 315" fill="none" xmlns="http://www.w3.org/2000/svg">
<rect x="168.891" y="-3.05176e-05" width="130.129" height="128.547" rx="27.6871" fill="white"/>
<rect x="169.583" y="0.692146" width="128.745" height="127.163" rx="26.9949" stroke="#3E3E3E" stroke-opacity="0.15" stroke-width="1.38435"/>
<path d="M224.394 59.4255V59.0189C224.394 57.9882 225.224 57.1333 226.294 57.0623L234.084 56.5449L244.858 72.327V58.4755L242.084 58.1078V57.9147C242.084 56.8718 242.933 56.0113 244.016 55.9561L251.105 55.5949V56.6097C251.105 57.0861 250.749 57.4935 250.261 57.5756L248.555 57.8626V80.2946L246.414 81.027C244.626 81.6388 242.635 80.9839 241.611 79.447L231.152 63.7464V78.7317L234.371 79.3446L234.326 79.6417C234.186 80.5721 233.378 81.2759 232.401 81.3191L224.394 81.6736C224.288 80.673 225.042 79.7779 226.082 79.6692L227.135 79.5591V59.5787L224.394 59.4255Z" fill="#242424"/>
<path fill-rule="evenodd" clip-rule="evenodd" d="M243.364 38.1822L211.265 40.3624C209.342 40.4929 207.852 42.0307 207.852 43.8839V74.9421C207.852 76.6833 208.454 78.3751 209.564 79.7508L216.485 88.328C217.604 89.7147 219.365 90.4783 221.187 90.3668L256.814 88.1852C258.64 88.0733 260.061 86.6169 260.061 84.8577V49.5476C260.061 48.4593 259.509 47.4394 258.581 46.8156L247.303 39.2302C246.154 38.4572 244.763 38.0872 243.364 38.1822ZM212.856 44.3683C212.41 44.0395 212.622 43.3545 213.183 43.3145L243.58 41.1456C244.548 41.0765 245.511 41.3418 246.294 41.8938L252.393 46.1922C252.625 46.3554 252.516 46.7077 252.229 46.7232L220.039 48.4648C219.065 48.5175 218.103 48.2328 217.329 47.6623L212.856 44.3683ZM218.529 53.9245C218.529 52.8842 219.374 52.0249 220.455 51.9663L254.489 50.1225C255.541 50.0655 256.428 50.8709 256.428 51.8848V82.4597C256.428 83.4981 255.586 84.3566 254.508 84.4176L220.689 86.3318C219.517 86.3981 218.529 85.5024 218.529 84.3739V53.9245Z" fill="#242424"/>
<rect x="337.783" y="-3.05176e-05" width="128.745" height="128.547" rx="27.6871" fill="white"/>
<rect x="338.475" y="0.692146" width="127.361" height="127.163" rx="26.9949" stroke="#3E3E3E" stroke-opacity="0.15" stroke-width="1.38435"/>
<path d="M424.998 62.0977C428.001 62.0977 430.436 59.663 430.436 56.6597V56.6597C430.436 53.6563 428.001 51.2216 424.998 51.2216V51.2216C421.994 51.2216 419.559 53.6565 419.559 56.6602V62.0977H424.998ZM409.77 62.0977C412.773 62.0977 415.208 59.6628 415.208 56.6592V41.4323C415.208 38.4287 412.773 35.9938 409.77 35.9938V35.9938C406.766 35.9938 404.331 38.4287 404.331 41.4323V56.6592C404.331 59.6628 406.766 62.0977 409.77 62.0977V62.0977Z" fill="#2EB67D"/>
<path d="M379.315 66.4484C376.311 66.4484 373.877 68.8831 373.877 71.8864V71.8864C373.877 74.8898 376.312 77.3245 379.315 77.3245V77.3245C382.319 77.3245 384.754 74.8896 384.754 71.886V66.4484H379.315ZM394.543 66.4484C391.539 66.4484 389.105 68.8833 389.105 71.8869V87.1138C389.105 90.1174 391.539 92.5524 394.543 92.5524V92.5524C397.547 92.5524 399.982 90.1174 399.982 87.1138V71.8869C399.982 68.8833 397.547 66.4484 394.543 66.4484V66.4484Z" fill="#E01E5A"/>
<path d="M404.333 87.1147C404.333 90.1181 406.767 92.5528 409.771 92.5528V92.5528C412.774 92.5528 415.209 90.1178 415.209 87.1145V87.1145C415.209 84.1109 412.774 81.6757 409.77 81.6757L404.333 81.6757L404.333 87.1147ZM404.333 71.8864C404.333 74.89 406.768 77.3249 409.771 77.3249L424.998 77.3249C428.002 77.3249 430.437 74.89 430.437 71.8864V71.8864C430.437 68.8828 428.002 66.4479 424.998 66.4479L409.771 66.4479C406.768 66.4479 404.333 68.8828 404.333 71.8864V71.8864Z" fill="#ECB22E"/>
<path d="M399.98 41.4304C399.98 38.4271 397.545 35.9924 394.542 35.9924V35.9924C391.539 35.9924 389.104 38.4273 389.104 41.4306V41.4306C389.104 44.4343 391.539 46.8694 394.542 46.8694L399.98 46.8694L399.98 41.4304ZM399.98 56.6588C399.98 53.6551 397.545 51.2202 394.542 51.2202L379.315 51.2202C376.311 51.2202 373.876 53.6551 373.876 56.6587V56.6587C373.876 59.6624 376.311 62.0973 379.315 62.0973L394.542 62.0973C397.545 62.0973 399.98 59.6624 399.98 56.6588V56.6588Z" fill="#36C5F0"/>
<rect x="506.674" y="-3.05176e-05" width="128.745" height="128.547" rx="27.6871" fill="white"/>
<rect x="507.366" y="0.692146" width="127.361" height="127.163" rx="26.9949" stroke="#3E3E3E" stroke-opacity="0.15" stroke-width="1.38435"/>
<path d="M576.557 69.7957C573.015 71.1286 569.046 71.1311 565.504 69.7965C564.169 66.2581 564.169 62.2894 565.502 58.7504C569.043 57.4152 573.016 57.415 576.558 58.7502C577.892 62.2882 577.891 66.2577 576.557 69.7957ZM596.789 59.9217H581.541L592.323 49.1463C590.631 46.771 588.542 44.6843 586.165 42.9933L575.383 53.7687V38.5302C572.505 38.0464 569.554 38.0471 566.677 38.5302V53.7687L555.895 42.9933C553.518 44.6832 551.429 46.7727 549.737 49.1463L560.52 59.9217H545.272C544.896 62.8838 544.773 65.6676 545.272 68.6236H560.52L549.737 79.399C551.433 81.7779 553.514 83.8577 555.895 85.5529L566.677 74.7766V90.0159C569.555 90.4979 572.505 90.4982 575.383 90.0159V74.7766L586.166 85.5529C588.544 83.8601 590.629 81.7752 592.323 79.399L581.54 68.6236H596.789C597.273 65.7502 597.273 62.7951 596.789 59.9217Z" fill="#FF4A00"/>
<g opacity="0.1">
<rect x="685.948" y="0.692146" width="127.361" height="127.163" rx="26.9949" fill="#CACACA"/>
<rect x="685.948" y="0.692146" width="127.361" height="127.163" rx="26.9949" stroke="#3E3E3E" stroke-width="1.38435"/>
</g>
<g opacity="0.1">
<rect x="580.737" y="183.427" width="127.361" height="127.163" rx="26.9949" fill="#CACACA"/>
<rect x="580.737" y="183.427" width="127.361" height="127.163" rx="26.9949" stroke="#3E3E3E" stroke-width="1.38435"/>
</g>
<g opacity="0.1">
<rect x="0.692177" y="0.692177" width="127.361" height="127.163" rx="26.9949" fill="#CACACA"/>
<rect x="0.692177" y="0.692177" width="127.361" height="127.163" rx="26.9949" stroke="#3E3E3E" stroke-width="1.38435"/>
</g>
<g opacity="0.1">
<rect x="62.9891" y="183.427" width="127.361" height="127.163" rx="26.9949" fill="#CACACA"/>
<rect x="62.9891" y="183.427" width="127.361" height="127.163" rx="26.9949" stroke="#3E3E3E" stroke-width="1.38435"/>
</g>
<rect x="243.646" y="185.503" width="128.745" height="128.547" rx="27.6871" fill="white"/>
<rect x="244.339" y="186.195" width="127.361" height="127.163" rx="26.9949" stroke="#3E3E3E" stroke-opacity="0.15" stroke-width="1.38435"/>
<path d="M298.462 233.007C298.462 233.613 298.413 234.623 297.831 235.28C297.2 235.886 296.229 235.936 295.647 235.936C292.37 235.936 287.825 235.101 284.726 236.391C289.455 227.781 298.618 222.06 298.559 222.553C298.122 225.96 298.462 229.58 298.462 233.007ZM308.266 272.096C308.266 267.904 311.567 264.47 315.644 264.47C316.857 264.47 317.828 265.48 317.828 266.743C317.828 267.601 317.391 268.308 316.712 268.712C315.972 269.174 314.947 268.959 314.285 269.571C313.799 269.975 313.411 270.631 313.411 271.338C313.411 272.096 313.702 272.803 314.188 273.308C315.061 274.217 316.226 274.722 317.488 274.722C320.789 274.722 323.458 271.944 323.458 268.51C323.458 265.429 321.468 262.702 318.847 261.49C314.87 259.421 308.784 260.599 308.315 254.117C307.585 257.545 305.976 263.662 301.617 263.662C288.448 264.476 283.702 253.655 282.784 242.199C282.784 239.724 284.24 238.057 286.085 237.805C289.385 237.805 292.686 237.805 295.986 237.805C297.685 237.805 298.656 237.35 299.287 236.744C300.112 235.936 300.306 234.775 300.306 233.411C300.306 229.859 300.306 224.397 300.306 222.755C300.306 220.611 302.151 219.321 304.529 219.321C305.93 219.321 307.245 219.371 308.606 219.725C311.567 220.483 312.198 223.614 312.198 223.614C312.198 223.614 317.78 224.624 320.595 225.129C323.264 225.634 329.865 226.088 331.127 233.007C334.088 249.471 332.292 265.429 332.147 265.429C330.059 280.984 317.634 280.227 317.634 280.227C313.117 280.227 308.266 277.099 308.266 272.096ZM322.827 245.279C321.226 245.128 319.867 245.784 319.381 247.047C318.693 248.836 325.788 250.324 325.788 247.855C325.594 246.441 324.429 245.481 322.827 245.279Z" fill="#00A82D"/>
<rect x="411.152" y="185.503" width="130.129" height="128.547" rx="27.6871" fill="white"/>
<rect x="411.845" y="186.195" width="128.745" height="127.163" rx="26.9949" stroke="#3E3E3E" stroke-opacity="0.15" stroke-width="1.38435"/>
<path fill-rule="evenodd" clip-rule="evenodd" d="M476.217 249.777C476.217 244.571 480.599 240.35 486.006 240.35C491.412 240.35 495.795 244.571 495.795 249.777C495.795 254.983 491.412 259.204 486.006 259.204C480.599 259.204 476.217 254.983 476.217 249.777Z" fill="#1ABCFE"/>
<path fill-rule="evenodd" clip-rule="evenodd" d="M456.638 268.631C456.638 263.424 461.021 259.204 466.428 259.204H476.217V268.631C476.217 273.837 471.834 278.057 466.428 278.057C461.021 278.057 456.638 273.837 456.638 268.631Z" fill="#0ACF83"/>
<path fill-rule="evenodd" clip-rule="evenodd" d="M476.217 221.497V240.35H486.006C491.412 240.35 495.795 236.13 495.795 230.924C495.795 225.717 491.412 221.497 486.006 221.497H476.217Z" fill="#FF7262"/>
<path fill-rule="evenodd" clip-rule="evenodd" d="M456.638 230.924C456.638 236.13 461.021 240.35 466.428 240.35H476.217V221.497H466.428C461.021 221.497 456.638 225.717 456.638 230.924Z" fill="#F24E1E"/>
<path fill-rule="evenodd" clip-rule="evenodd" d="M456.638 249.777C456.638 254.983 461.021 259.204 466.428 259.204H476.217V240.35H466.428C461.021 240.35 456.638 244.571 456.638 249.777Z" fill="#A259FF"/>
</svg>
