<svg width="149" height="46" viewBox="0 0 149 46" fill="none" xmlns="http://www.w3.org/2000/svg">
<path d="M47.7675 33V12H56.1975C58.3775 12 60.0375 12.51 61.1775 13.53C62.3375 14.53 62.9175 15.82 62.9175 17.4C62.9175 18.72 62.5575 19.78 61.8375 20.58C61.1375 21.36 60.2775 21.89 59.2575 22.17C60.4575 22.41 61.4475 23.01 62.2275 23.97C63.0075 24.91 63.3975 26.01 63.3975 27.27C63.3975 28.93 62.7975 30.3 61.5975 31.38C60.3975 32.46 58.6975 33 56.4975 33H47.7675ZM51.6075 20.82H55.6275C56.7075 20.82 57.5375 20.57 58.1175 20.07C58.6975 19.57 58.9875 18.86 58.9875 17.94C58.9875 17.06 58.6975 16.37 58.1175 15.87C57.5575 15.35 56.7075 15.09 55.5675 15.09H51.6075V20.82ZM51.6075 29.88H55.8975C57.0375 29.88 57.9175 29.62 58.5375 29.1C59.1775 28.56 59.4975 27.81 59.4975 26.85C59.4975 25.87 59.1675 25.1 58.5075 24.54C57.8475 23.98 56.9575 23.7 55.8375 23.7H51.6075V29.88ZM72.1833 33.36C70.3233 33.36 68.8833 32.78 67.8633 31.62C66.8633 30.46 66.3633 28.76 66.3633 26.52V18.12H70.1733V26.16C70.1733 27.44 70.4333 28.42 70.9533 29.1C71.4733 29.78 72.2933 30.12 73.4133 30.12C74.4733 30.12 75.3433 29.74 76.0233 28.98C76.7233 28.22 77.0733 27.16 77.0733 25.8V18.12H80.9133V33H77.5233L77.2233 30.48C76.7633 31.36 76.0933 32.06 75.2133 32.58C74.3533 33.1 73.3433 33.36 72.1833 33.36ZM93.6753 33.36C92.5553 33.36 91.5753 33.15 90.7353 32.73C89.8953 32.31 89.2153 31.72 88.6953 30.96L88.2753 33H84.8553V11.4H88.6953V20.25C89.1753 19.59 89.8053 19.01 90.5853 18.51C91.3853 18.01 92.4153 17.76 93.6753 17.76C95.0753 17.76 96.3253 18.1 97.4253 18.78C98.5253 19.46 99.3953 20.39 100.035 21.57C100.675 22.75 100.995 24.09 100.995 25.59C100.995 27.09 100.675 28.43 100.035 29.61C99.3953 30.77 98.5253 31.69 97.4253 32.37C96.3253 33.03 95.0753 33.36 93.6753 33.36ZM92.8653 30C94.0853 30 95.0953 29.59 95.8953 28.77C96.6953 27.95 97.0953 26.89 97.0953 25.59C97.0953 24.29 96.6953 23.22 95.8953 22.38C95.0953 21.54 94.0853 21.12 92.8653 21.12C91.6253 21.12 90.6053 21.54 89.8053 22.38C89.0253 23.2 88.6353 24.26 88.6353 25.56C88.6353 26.86 89.0253 27.93 89.8053 28.77C90.6053 29.59 91.6253 30 92.8653 30ZM113.246 33.36C112.126 33.36 111.146 33.15 110.306 32.73C109.466 32.31 108.786 31.72 108.266 30.96L107.846 33H104.426V11.4H108.266V20.25C108.746 19.59 109.376 19.01 110.156 18.51C110.956 18.01 111.986 17.76 113.246 17.76C114.646 17.76 115.896 18.1 116.996 18.78C118.096 19.46 118.966 20.39 119.606 21.57C120.246 22.75 120.566 24.09 120.566 25.59C120.566 27.09 120.246 28.43 119.606 29.61C118.966 30.77 118.096 31.69 116.996 32.37C115.896 33.03 114.646 33.36 113.246 33.36ZM112.436 30C113.656 30 114.666 29.59 115.466 28.77C116.266 27.95 116.666 26.89 116.666 25.59C116.666 24.29 116.266 23.22 115.466 22.38C114.666 21.54 113.656 21.12 112.436 21.12C111.196 21.12 110.176 21.54 109.376 22.38C108.596 23.2 108.206 24.26 108.206 25.56C108.206 26.86 108.596 27.93 109.376 28.77C110.176 29.59 111.196 30 112.436 30ZM123.996 33V11.4H127.836V33H123.996ZM138.99 33.36C137.49 33.36 136.16 33.04 135 32.4C133.84 31.76 132.93 30.86 132.27 29.7C131.61 28.54 131.28 27.2 131.28 25.68C131.28 24.14 131.6 22.77 132.24 21.57C132.9 20.37 133.8 19.44 134.94 18.78C136.1 18.1 137.46 17.76 139.02 17.76C140.48 17.76 141.77 18.08 142.89 18.72C144.01 19.36 144.88 20.24 145.5 21.36C146.14 22.46 146.46 23.69 146.46 25.05C146.46 25.27 146.45 25.5 146.43 25.74C146.43 25.98 146.42 26.23 146.4 26.49H135.09C135.17 27.65 135.57 28.56 136.29 29.22C137.03 29.88 137.92 30.21 138.96 30.21C139.74 30.21 140.39 30.04 140.91 29.7C141.45 29.34 141.85 28.88 142.11 28.32H146.01C145.73 29.26 145.26 30.12 144.6 30.9C143.96 31.66 143.16 32.26 142.2 32.7C141.26 33.14 140.19 33.36 138.99 33.36ZM139.02 20.88C138.08 20.88 137.25 21.15 136.53 21.69C135.81 22.21 135.35 23.01 135.15 24.09H142.56C142.5 23.11 142.14 22.33 141.48 21.75C140.82 21.17 140 20.88 139.02 20.88Z" fill="#242424"/>
<path d="M33.8468 16.4335C33.1988 14.9513 32.3411 13.57 31.3 12.332C29.7611 10.4473 27.8406 8.90996 25.6649 7.82118C23.4892 6.7324 21.1077 6.11686 18.677 6.01508C16.2464 5.9133 13.8217 6.32758 11.5627 7.23066C9.3036 8.13373 7.26135 9.50513 5.57033 11.2546C3.87931 13.004 2.57785 15.0919 1.75162 17.3807C0.92538 19.6696 0.5931 22.1075 0.776647 24.534C0.960194 26.9605 1.65541 29.3207 2.81652 31.4591C3.97764 33.5975 5.57834 35.4657 7.51327 36.9408C8.75482 37.9061 10.1267 38.6909 11.5881 39.2717C13.637 40.1116 15.8298 40.5442 18.0441 40.5455C22.6148 40.5353 26.995 38.7129 30.2246 35.4776C33.4542 32.2424 35.2696 27.8582 35.273 23.2862C35.2763 20.9279 34.7907 18.5945 33.8468 16.4335ZM18.0314 9.51703C20.0199 9.51682 21.9843 9.95156 23.7871 10.7908C23.3475 10.9808 22.8853 11.1135 22.4118 11.1856C20.854 11.4112 19.4108 12.1347 18.2978 13.2481C17.1847 14.3614 16.4614 15.805 16.2359 17.3633C16.1369 18.2372 15.7396 19.0503 15.1109 19.6652C14.4822 20.2801 13.6608 20.6593 12.7851 20.7387C11.2272 20.9643 9.78405 21.6878 8.67099 22.8011C7.55794 23.9145 6.83468 25.3581 6.60917 26.9164C6.53282 27.7474 6.17837 28.5283 5.6032 29.1327C4.61079 27.0352 4.16498 24.7206 4.30724 22.4044C4.4495 20.0882 5.17522 17.8457 6.41685 15.8854C7.65848 13.9252 9.37568 12.311 11.4086 11.1931C13.4416 10.0752 15.7242 9.48983 18.0441 9.49156L18.0314 9.51703ZM7.50054 32.2024C7.65334 32.0623 7.80615 31.9349 7.95896 31.7821C9.09182 30.6834 9.819 29.2331 10.0218 27.6679C10.1041 26.788 10.4968 25.9662 11.1297 25.3497C11.7387 24.7156 12.5584 24.326 13.4345 24.2543C14.9924 24.0287 16.4355 23.3052 17.5486 22.1919C18.6616 21.0785 19.3849 19.6349 19.6104 18.0766C19.6655 17.1563 20.0603 16.2893 20.7182 15.6437C21.3423 15.022 22.1698 14.6465 23.0485 14.5865C24.4797 14.3896 25.8145 13.7531 26.8687 12.7651C28.069 13.7612 29.086 14.9596 29.8738 16.3061C29.8255 16.3715 29.7699 16.4313 29.7083 16.4844C29.1005 17.1241 28.2818 17.5222 27.4035 17.6053C25.844 17.827 24.3987 18.5491 23.2849 19.6632C22.1711 20.7773 21.4492 22.2231 21.2276 23.783C21.1378 24.6599 20.7478 25.4787 20.1235 26.1009C19.4992 26.723 18.6792 27.1101 17.8022 27.1966C16.2398 27.4205 14.7912 28.1425 13.6717 29.2554C12.5522 30.3683 11.8215 31.8128 11.5881 33.3743C11.5196 33.9968 11.3058 34.5945 10.9641 35.1193C9.65764 34.3434 8.48752 33.358 7.50054 32.2024ZM18.0314 37.1191C16.7393 37.1205 15.4533 36.9404 14.2113 36.5841C14.6361 35.7918 14.9123 34.9284 15.0262 34.0366C15.1155 33.1617 15.5037 32.3443 16.1254 31.7225C16.7471 31.1006 17.5642 30.7123 18.4389 30.623C19.9991 30.3999 21.4451 29.6776 22.5606 28.564C23.6762 27.4504 24.4013 26.0055 24.6275 24.4453C24.7168 23.5704 25.105 22.753 25.7267 22.1312C26.3484 21.5093 27.1655 21.121 28.0402 21.0317C29.2143 20.8789 30.3333 20.4417 31.3 19.7579C31.8368 21.7933 31.9004 23.9245 31.4859 25.9883C31.0714 28.052 30.1898 29.9933 28.9088 31.6633C27.6278 33.3333 25.9813 34.6876 24.0958 35.6223C22.2103 36.557 20.1357 37.0472 18.0314 37.0554V37.1191Z" fill="#242424"/>
</svg>
