<svg width="51" height="62" viewBox="0 0 51 62" fill="none" xmlns="http://www.w3.org/2000/svg">
<path d="M16.4617 13.8138C16.4617 14.4198 16.4132 15.4298 15.8307 16.0864C15.1997 16.6924 14.229 16.7429 13.6465 16.7429C10.3699 16.7429 5.82477 15.9076 2.72567 17.1974C7.45545 8.58763 16.6181 2.86646 16.5588 3.35982C16.1222 6.76674 16.4617 10.387 16.4617 13.8138ZM26.2662 52.9024C26.2662 48.7108 29.5668 45.2766 33.6439 45.2766C34.8573 45.2766 35.8281 46.2867 35.8281 47.5492C35.8281 48.4077 35.3912 49.1148 34.7117 49.5188C33.9716 49.9808 32.9466 49.7653 32.2848 50.3773C31.7995 50.7813 31.4112 51.4379 31.4112 52.1449C31.4112 52.9024 31.7024 53.6095 32.1878 54.1145C33.0614 55.0235 34.2263 55.5285 35.4883 55.5285C38.7888 55.5285 41.4584 52.7509 41.4584 49.3168C41.4584 46.2362 39.4684 43.509 36.8473 42.297C32.8696 40.2276 26.7836 41.4053 26.3148 34.9237C25.5852 38.3519 23.9758 44.4686 19.6166 44.4686C6.44813 45.2825 1.70171 34.4613 0.78418 23.0052C0.78418 20.5306 2.2403 18.864 4.08471 18.6115C7.38524 18.6115 10.6858 18.6115 13.9863 18.6115C15.6851 18.6115 16.6559 18.157 17.2868 17.5509C18.112 16.7429 18.3061 15.5813 18.3061 14.2178C18.3061 10.6658 18.3061 5.20365 18.3061 3.56183C18.3061 1.41766 20.1505 0.127686 22.5289 0.127686C23.9299 0.127686 25.2448 0.177631 26.606 0.531703C29.5668 1.28924 30.1977 4.42037 30.1977 4.42037C30.1977 4.42037 35.7795 5.43041 38.5947 5.93543C41.2642 6.44046 47.8653 6.89497 49.1273 13.8138C52.088 30.2775 50.2922 46.2362 50.1465 46.2362C48.0594 61.7908 35.6339 61.0333 35.6339 61.0333C31.1172 61.0333 26.2662 57.9062 26.2662 52.9024ZM40.8274 26.0858C39.2257 25.9343 37.8666 26.5908 37.3813 27.8534C36.6934 29.6425 43.7882 31.1303 43.7882 28.6614C43.594 27.2473 42.4291 26.2878 40.8274 26.0858Z" fill="#00A82D"/>
</svg>
