<svg width="40" height="57" viewBox="0 0 40 57" fill="none" xmlns="http://www.w3.org/2000/svg">
<path fill-rule="evenodd" clip-rule="evenodd" d="M20.2165 28.5839C20.2165 23.3776 24.5993 19.1571 30.0058 19.1571C35.4124 19.1571 39.7952 23.3776 39.7952 28.5839C39.7952 33.7901 35.4124 38.0107 30.0058 38.0107C24.5993 38.0107 20.2165 33.7901 20.2165 28.5839Z" fill="#1ABCFE"/>
<path fill-rule="evenodd" clip-rule="evenodd" d="M0.638367 47.4372C0.638367 42.2309 5.02121 38.0104 10.4277 38.0104H20.2171V47.4372C20.2171 52.6435 15.8342 56.864 10.4277 56.864C5.02121 56.864 0.638367 52.6435 0.638367 47.4372Z" fill="#0ACF83"/>
<path fill-rule="evenodd" clip-rule="evenodd" d="M20.2165 0.303375V19.157H30.0058C35.4124 19.157 39.7952 14.9364 39.7952 9.73016C39.7952 4.52389 35.4124 0.303375 30.0058 0.303375H20.2165Z" fill="#FF7262"/>
<path fill-rule="evenodd" clip-rule="evenodd" d="M0.638367 9.73016C0.638367 14.9364 5.02121 19.157 10.4277 19.157H20.2171V0.303375H10.4277C5.02121 0.303375 0.638367 4.52389 0.638367 9.73016Z" fill="#F24E1E"/>
<path fill-rule="evenodd" clip-rule="evenodd" d="M0.638367 28.5839C0.638367 33.7901 5.02121 38.0107 10.4277 38.0107H20.2171V19.1571H10.4277C5.02121 19.1571 0.638367 23.3776 0.638367 28.5839Z" fill="#A259FF"/>
</svg>
