<svg width="172" height="46" viewBox="0 0 172 46" fill="none" xmlns="http://www.w3.org/2000/svg">
<path d="M25.9117 21.1613C25.4291 21.6552 25.0596 22.2514 24.8293 22.9072C24.5991 23.5631 24.5139 24.2625 24.5797 24.9557L24.5568 24.9324C24.6245 25.7484 24.5164 26.5695 24.2399 27.3386C23.9635 28.1076 23.5254 28.806 22.9563 29.385C22.3871 29.9641 21.7006 30.4097 20.9447 30.691C20.1888 30.9722 19.3817 31.0822 18.5796 31.0134L18.6025 31.0367C17.6432 30.9458 16.6796 31.1582 15.8432 31.6449C15.0068 32.1316 14.3383 32.8689 13.9289 33.7563C13.5195 34.6436 13.389 35.6379 13.5554 36.6034C13.7217 37.569 14.1767 38.4588 14.8583 39.1517C15.5399 39.8445 16.415 40.3066 17.3642 40.4749C18.3134 40.6433 19.2906 40.5097 20.1624 40.0923C21.0343 39.675 21.7584 38.9942 22.236 38.1429C22.7137 37.2915 22.9216 36.311 22.8314 35.3351L22.8556 35.3584C22.7879 34.5424 22.896 33.7213 23.1725 32.9522C23.4489 32.1832 23.887 31.4848 24.4561 30.9058C25.0253 30.3267 25.7118 29.8811 26.4677 29.5998C27.2236 29.3186 28.0308 29.2086 28.8328 29.2774L28.8086 29.2541C29.5923 29.3258 30.3811 29.1951 31.1019 28.8741C31.8227 28.553 32.4522 28.0521 32.9321 27.4176C33.4119 26.7832 33.7266 26.0358 33.8469 25.2447C33.9672 24.4536 33.8893 23.6444 33.6203 22.8921C33.3514 22.1398 32.9001 21.4687 32.3084 20.9411C31.7166 20.4134 31.0035 20.0463 30.2352 19.8737C29.4668 19.7011 28.6681 19.7286 27.913 19.9537C27.1579 20.1788 26.4708 20.5941 25.9155 21.1613H25.9117Z" fill="#242424"/>
<path d="M16.5176 27.9817L16.4934 27.9584C17.1751 28.0283 17.8635 27.9432 18.5088 27.7092C19.1542 27.4753 19.7404 27.0983 20.2251 26.6056C20.7097 26.113 21.0807 25.5169 21.3111 24.8605C21.5416 24.2041 21.6257 23.5038 21.5576 22.8102L21.5818 22.8335C21.5141 22.0176 21.6222 21.1964 21.8986 20.4274C22.1751 19.6583 22.6132 18.9599 23.1823 18.3809C23.7514 17.8019 24.4379 17.3562 25.1939 17.0749C25.9498 16.7937 26.7569 16.6837 27.559 16.7526L27.5348 16.7292C28.4942 16.8209 29.4581 16.6092 30.295 16.1231C31.1318 15.6369 31.8009 14.9 32.211 14.0128C32.621 13.1255 32.7521 12.1312 32.5862 11.1654C32.4204 10.1996 31.9658 9.30941 31.2844 8.61615C30.6029 7.9229 29.7279 7.46037 28.7786 7.29166C27.8293 7.12295 26.8519 7.25627 25.9798 7.67344C25.1078 8.09061 24.3834 8.77131 23.9055 9.6227C23.4277 10.4741 23.2196 11.4547 23.3097 12.4308L23.2868 12.4062C23.3547 13.2222 23.2467 14.0435 22.9704 14.8126C22.694 15.5818 22.2559 16.2803 21.6868 16.8594C21.1176 17.4384 20.431 17.8841 19.675 18.1653C18.9189 18.4464 18.1117 18.5563 17.3096 18.4872L17.3325 18.5118C16.6509 18.4419 15.9624 18.527 15.3171 18.761C14.6717 18.995 14.0855 19.3719 13.6009 19.8646C13.1162 20.3573 12.7453 20.9534 12.5148 21.6098C12.2844 22.2662 12.2002 22.9665 12.2683 23.66L12.2454 23.6367C12.3129 24.4526 12.2046 25.2737 11.9281 26.0426C11.6516 26.8116 11.2135 27.5099 10.6444 28.0889C10.0753 28.6678 9.3889 29.1135 8.63308 29.3948C7.87726 29.6762 7.07021 29.7863 6.26823 29.7177L6.29115 29.741C5.33169 29.6493 4.36779 29.861 3.53093 30.3472C2.69407 30.8333 2.02498 31.5702 1.61493 32.4575C1.20488 33.3447 1.07384 34.339 1.23967 35.3048C1.4055 36.2706 1.86013 37.1608 2.54156 37.8541C3.22298 38.5473 4.09802 39.0099 5.04733 39.1786C5.99663 39.3473 6.97398 39.214 7.84607 38.7968C8.71816 38.3796 9.44253 37.6989 9.92038 36.8475C10.3982 35.9961 10.6063 35.0155 10.5162 34.0394L10.5404 34.0627C10.4727 33.2468 10.5808 32.4256 10.8573 31.6565C11.1337 30.8875 11.5718 30.1891 12.1409 29.6101C12.7101 29.031 13.3966 28.5854 14.1525 28.3041C14.9084 28.0229 15.7155 27.9129 16.5176 27.9817Z" fill="#242424"/>
<path d="M7.98389 25.3816C8.46652 24.8877 8.83604 24.2916 9.06606 23.6357C9.29608 22.9797 9.38093 22.2803 9.31456 21.5871L9.33875 21.6105C9.271 20.7943 9.3792 19.9729 9.65578 19.2036C9.93237 18.4344 10.3707 17.7358 10.9401 17.1567C11.5095 16.5777 12.1964 16.1321 12.9526 15.851C13.7088 15.5699 14.5163 15.4602 15.3185 15.5295L15.2943 15.5062C16.2534 15.5976 17.2169 15.3858 18.0534 14.8997C18.8899 14.4136 19.5586 13.6768 19.9684 12.7898C20.3782 11.9029 20.5091 10.9089 20.3433 9.94351C20.1775 8.97809 19.723 8.08819 19.0418 7.39519C18.3607 6.70219 17.4859 6.23981 16.537 6.07111C15.588 5.9024 14.611 6.03559 13.7392 6.45251C12.8674 6.86942 12.1432 7.54977 11.6654 8.40077C11.1876 9.25177 10.9794 10.232 11.0693 11.2078L11.0463 11.1845C11.114 12.0004 11.0059 12.8216 10.7295 13.5906C10.453 14.3597 10.0149 15.0581 9.4458 15.6371C8.87667 16.2161 8.19018 16.6618 7.43425 16.943C6.67833 17.2243 5.87118 17.3343 5.06915 17.2654L5.09207 17.2887C4.3084 17.2172 3.51967 17.3482 2.79897 17.6693C2.07827 17.9905 1.44891 18.4916 0.969219 19.1261C0.489528 19.7606 0.175022 20.508 0.0548473 21.2991C-0.0653274 22.0901 0.0127162 22.8993 0.281747 23.6515C0.550777 24.4037 1.00209 25.0747 1.59386 25.6022C2.18564 26.1298 2.89872 26.4968 3.66704 26.6694C4.43537 26.8419 5.23406 26.8143 5.98912 26.5892C6.74418 26.3641 7.43117 25.9487 7.98644 25.3816H7.98389Z" fill="#242424"/>
<path d="M53.04 33V12H66.6V15.09H56.88V20.97H64.74V24H56.88V33H53.04ZM69.4734 33V11.4H73.3134V33H69.4734ZM82.8171 33.36C80.9571 33.36 79.5171 32.78 78.4971 31.62C77.4971 30.46 76.9971 28.76 76.9971 26.52V18.12H80.8071V26.16C80.8071 27.44 81.0671 28.42 81.5871 29.1C82.1071 29.78 82.9271 30.12 84.0471 30.12C85.1071 30.12 85.9771 29.74 86.6571 28.98C87.3571 28.22 87.7071 27.16 87.7071 25.8V18.12H91.5471V33H88.1571L87.8571 30.48C87.3971 31.36 86.7271 32.06 85.8471 32.58C84.9871 33.1 83.9771 33.36 82.8171 33.36ZM97.5591 15.81C96.8591 15.81 96.2791 15.6 95.8191 15.18C95.3791 14.76 95.1591 14.23 95.1591 13.59C95.1591 12.95 95.3791 12.43 95.8191 12.03C96.2791 11.61 96.8591 11.4 97.5591 11.4C98.2591 11.4 98.8291 11.61 99.2691 12.03C99.7291 12.43 99.9591 12.95 99.9591 13.59C99.9591 14.23 99.7291 14.76 99.2691 15.18C98.8291 15.6 98.2591 15.81 97.5591 15.81ZM95.6391 33V18.12H99.4791V33H95.6391ZM110.327 33.36C108.927 33.36 107.677 33.02 106.577 32.34C105.477 31.66 104.607 30.73 103.967 29.55C103.327 28.37 103.007 27.03 103.007 25.53C103.007 24.03 103.327 22.7 103.967 21.54C104.607 20.36 105.477 19.44 106.577 18.78C107.677 18.1 108.927 17.76 110.327 17.76C111.447 17.76 112.427 17.97 113.267 18.39C114.107 18.81 114.787 19.4 115.307 20.16V11.4H119.147V33H115.727L115.307 30.87C114.827 31.53 114.187 32.11 113.387 32.61C112.607 33.11 111.587 33.36 110.327 33.36ZM111.137 30C112.377 30 113.387 29.59 114.167 28.77C114.967 27.93 115.367 26.86 115.367 25.56C115.367 24.26 114.967 23.2 114.167 22.38C113.387 21.54 112.377 21.12 111.137 21.12C109.917 21.12 108.907 21.53 108.107 22.35C107.307 23.17 106.907 24.23 106.907 25.53C106.907 26.83 107.307 27.9 108.107 28.74C108.907 29.58 109.917 30 111.137 30ZM136.506 28.56C135.786 28.56 135.116 28.48 134.496 28.32L133.386 29.43C133.726 29.61 134.186 29.76 134.766 29.88C135.346 30 136.286 30.12 137.586 30.24C139.566 30.42 141.006 30.89 141.906 31.65C142.806 32.41 143.256 33.46 143.256 34.8C143.256 35.68 143.016 36.51 142.536 37.29C142.056 38.09 141.316 38.73 140.316 39.21C139.316 39.71 138.036 39.96 136.476 39.96C134.356 39.96 132.646 39.56 131.346 38.76C130.046 37.98 129.396 36.8 129.396 35.22C129.396 33.88 130.046 32.72 131.346 31.74C130.946 31.56 130.596 31.37 130.296 31.17C130.016 30.97 129.766 30.76 129.546 30.54V29.85L132.156 27.09C130.996 26.07 130.416 24.76 130.416 23.16C130.416 22.16 130.656 21.25 131.136 20.43C131.636 19.61 132.336 18.96 133.236 18.48C134.136 18 135.226 17.76 136.506 17.76C137.346 17.76 138.126 17.88 138.846 18.12H144.486V20.46L141.936 20.64C142.336 21.4 142.536 22.24 142.536 23.16C142.536 24.16 142.296 25.07 141.816 25.89C141.336 26.71 140.636 27.36 139.716 27.84C138.816 28.32 137.746 28.56 136.506 28.56ZM136.506 25.62C137.286 25.62 137.926 25.41 138.426 24.99C138.946 24.57 139.206 23.97 139.206 23.19C139.206 22.41 138.946 21.81 138.426 21.39C137.926 20.97 137.286 20.76 136.506 20.76C135.686 20.76 135.026 20.97 134.526 21.39C134.026 21.81 133.776 22.41 133.776 23.19C133.776 23.97 134.026 24.57 134.526 24.99C135.026 25.41 135.686 25.62 136.506 25.62ZM132.906 34.83C132.906 35.57 133.246 36.12 133.926 36.48C134.626 36.86 135.476 37.05 136.476 37.05C137.436 37.05 138.216 36.85 138.816 36.45C139.416 36.07 139.716 35.55 139.716 34.89C139.716 34.35 139.516 33.9 139.116 33.54C138.736 33.18 137.966 32.96 136.806 32.88C135.986 32.82 135.226 32.73 134.526 32.61C133.946 32.93 133.526 33.28 133.266 33.66C133.026 34.04 132.906 34.43 132.906 34.83ZM147.286 33V11.4H151.126V33H147.286ZM160.63 33.36C158.77 33.36 157.33 32.78 156.31 31.62C155.31 30.46 154.81 28.76 154.81 26.52V18.12H158.62V26.16C158.62 27.44 158.88 28.42 159.4 29.1C159.92 29.78 160.74 30.12 161.86 30.12C162.92 30.12 163.79 29.74 164.47 28.98C165.17 28.22 165.52 27.16 165.52 25.8V18.12H169.36V33H165.97L165.67 30.48C165.21 31.36 164.54 32.06 163.66 32.58C162.8 33.1 161.79 33.36 160.63 33.36Z" fill="#242424"/>
</svg>
