<svg width="58" height="58" viewBox="0 0 58 58" fill="none" xmlns="http://www.w3.org/2000/svg">
<path d="M51.9981 26.9044C55.0014 26.9044 57.4361 24.4697 57.4361 21.4663C57.4361 18.463 55.0012 16.0283 51.9978 16.0283C48.9942 16.0283 46.5591 18.4632 46.5591 21.4668V26.9044H51.9981ZM36.7697 26.9044C39.7733 26.9044 42.2083 24.4695 42.2083 21.4659V6.23892C42.2083 3.23531 39.7733 0.8004 36.7697 0.8004C33.7661 0.8004 31.3312 3.23531 31.3312 6.23892V21.4659C31.3312 24.4695 33.7661 26.9044 36.7697 26.9044Z" fill="#2EB67D"/>
<path d="M6.31474 31.255C3.31138 31.255 0.87668 33.6897 0.87668 36.6931C0.87668 39.6964 3.31161 42.1311 6.31497 42.1311C9.31858 42.1311 11.7537 39.6962 11.7537 36.6926V31.255H6.31474ZM21.5431 31.255C18.5395 31.255 16.1045 33.6899 16.1045 36.6935V51.9205C16.1045 54.9241 18.5395 57.359 21.5431 57.359C24.5467 57.359 26.9816 54.9241 26.9816 51.9205V36.6935C26.9816 33.6899 24.5467 31.255 21.5431 31.255Z" fill="#E01E5A"/>
<path d="M31.3327 51.9214C31.3327 54.9247 33.7674 57.3594 36.7707 57.3594C39.7741 57.3594 42.2088 54.9245 42.2088 51.9211C42.2088 48.9175 39.7739 46.4824 36.7703 46.4824L31.3327 46.4824L31.3327 51.9214ZM31.3327 36.693C31.3327 39.6966 33.7676 42.1316 36.7712 42.1316L51.9982 42.1316C55.0018 42.1316 57.4367 39.6966 57.4367 36.693C57.4367 33.6894 55.0018 31.2545 51.9982 31.2545L36.7712 31.2545C33.7676 31.2545 31.3327 33.6894 31.3327 36.693Z" fill="#ECB22E"/>
<path d="M26.9801 6.23705C26.9801 3.2337 24.5454 0.798997 21.5421 0.798997C18.5387 0.798997 16.104 3.23393 16.104 6.23729C16.104 9.2409 18.5389 11.676 21.5425 11.676L26.9801 11.676L26.9801 6.23705ZM26.9801 21.4654C26.9801 18.4618 24.5452 16.0269 21.5416 16.0269L6.31465 16.0269C3.31104 16.0269 0.87613 18.4618 0.876129 21.4654C0.876129 24.469 3.31104 26.9039 6.31465 26.9039L21.5416 26.9039C24.5452 26.9039 26.9801 24.469 26.9801 21.4654Z" fill="#36C5F0"/>
</svg>
