<svg width="54" height="54" viewBox="0 0 54 54" fill="none" xmlns="http://www.w3.org/2000/svg">
<path d="M32.5575 32.6023C29.0154 33.9353 25.0461 33.9377 21.5039 32.6031C20.1693 29.0647 20.1689 25.0961 21.5018 21.5571C25.0431 20.2218 29.0164 20.2216 32.5577 21.5569C33.8918 25.0948 33.8912 29.0644 32.5575 32.6023ZM52.7893 22.7284H37.5415L48.3227 11.953C46.6307 9.57759 44.5418 7.49097 42.1651 5.79991L31.383 16.5753V1.33682C28.5055 0.853036 25.5543 0.853773 22.6767 1.33682V16.5753L11.8947 5.79991C9.51853 7.48983 7.42898 9.57932 5.73685 11.953L16.5197 22.7284H1.27205C0.895671 25.6905 0.773387 28.4742 1.27205 31.4302H16.5199L5.73705 42.2056C7.43327 44.5845 9.51432 46.6643 11.8947 48.3595L22.6767 37.5833V52.8226C25.5546 53.3046 28.5049 53.3048 31.3828 52.8226V37.5833L42.1659 48.3595C44.5436 46.6668 46.6289 44.5819 48.3227 42.2056L37.5398 31.4302H52.7893C53.2732 28.5569 53.2732 25.6017 52.7893 22.7284Z" fill="#FF4A00"/>
</svg>
