<svg width="239" height="304" viewBox="0 0 239 304" fill="none" xmlns="http://www.w3.org/2000/svg">
<path opacity="0.2" d="M289.11 152C297.333 152 304.076 145.318 303.271 137.134C301.519 119.299 296.621 101.874 288.768 85.6794C280.915 69.4844 270.266 54.849 257.348 42.4288C251.42 36.7292 241.998 37.885 236.905 44.3421C231.813 50.7993 232.996 60.1037 238.786 65.9431C248.241 75.4778 256.084 86.5302 261.972 98.6731C267.861 110.816 271.682 123.819 273.314 137.146C274.313 145.309 280.886 152 289.11 152Z" fill="#242424"/>
<path opacity="0.5" d="M223.334 34.908C227.613 27.885 225.414 18.6505 218.006 15.0794C197.102 5.00209 174.104 -0.184343 150.767 0.00500281C127.43 0.194348 104.519 5.75327 83.7812 16.1684C76.4324 19.8592 74.3833 29.1282 78.7752 36.0809C83.1671 43.0335 92.3343 45.0173 99.7691 41.5029C115.743 33.952 133.222 29.9286 151.008 29.7843C168.795 29.64 186.336 33.3792 202.431 40.6699C209.922 44.0632 219.056 41.9309 223.334 34.908Z" fill="#242424"/>
<path d="M64.7982 46.1938C59.568 39.8477 50.1233 38.8949 44.3192 44.7207C31.9136 57.1727 21.7344 71.7101 14.2677 87.7053C6.80094 103.701 2.19363 120.839 0.614579 138.345C-0.124197 146.535 6.67119 153.163 14.8945 153.098C23.1179 153.032 29.6371 146.288 30.5712 138.118C32.065 125.051 35.662 112.278 41.2526 100.302C46.8432 88.326 54.3249 77.3662 63.3822 67.8303C69.0455 61.8676 70.0284 52.5398 64.7982 46.1938Z" fill="#242424"/>
</svg>
