<svg width="48" height="47" viewBox="0 0 48 47" fill="none" xmlns="http://www.w3.org/2000/svg">
<path d="M15.5343 19.4142V19.0542C15.5343 18.1418 16.2689 17.385 17.2158 17.3221L24.1124 16.8641L33.65 30.8356V18.5732L31.1951 18.2476V18.0767C31.1951 17.1535 31.9465 16.3917 32.9054 16.3428L39.1806 16.023V16.9214C39.1806 17.3431 38.8654 17.7038 38.4333 17.7765L36.9232 18.0306V37.8892L35.028 38.5375C33.4447 39.0792 31.6821 38.4994 30.7757 37.1388L21.5164 23.2394V36.5056L24.3664 37.0482L24.3267 37.3112C24.2023 38.1349 23.4874 38.7579 22.6226 38.7962L15.5343 39.11C15.4406 38.2242 16.108 37.4317 17.0286 37.3355L17.961 37.2381V19.5498L15.5343 19.4142Z" fill="#242424"/>
<path fill-rule="evenodd" clip-rule="evenodd" d="M32.3279 0.607925L3.91088 2.53795C2.20872 2.65356 0.889282 4.01488 0.889282 5.65547V33.1507C0.889282 34.6922 1.42269 36.1899 2.40548 37.4078L8.53259 45.001C9.52324 46.2286 11.0822 46.9046 12.6951 46.8059L44.2348 44.8745C45.8513 44.7756 47.1097 43.4862 47.1097 41.9289V10.6695C47.1097 9.70598 46.6206 8.80315 45.7994 8.25086L35.8152 1.53568C34.7977 0.851325 33.5665 0.523795 32.3279 0.607925ZM5.32002 6.08435C4.92479 5.79326 5.11289 5.18683 5.60939 5.1514L32.519 3.23134C33.3764 3.17016 34.2284 3.40503 34.9217 3.89372L40.3209 7.69904C40.5259 7.84351 40.4298 8.15539 40.176 8.16912L11.6788 9.71089C10.8164 9.75755 9.96513 9.50551 9.27942 9.00048L5.32002 6.08435ZM10.3422 14.5442C10.3422 13.6233 11.0901 12.8625 12.0465 12.8107L42.1761 11.1784C43.1082 11.1279 43.8929 11.841 43.8929 12.7386V39.8059C43.8929 40.7252 43.1476 41.4852 42.1931 41.5392L12.2542 43.2338C11.2169 43.2925 10.3422 42.4996 10.3422 41.5005V14.5442Z" fill="#242424"/>
</svg>
